<svg xmlns="http://www.w3.org/2000/svg" version="1.1" xmlns:xlink="http://www.w3.org/1999/xlink" xmlns:svgjs="http://svgjs.com/svgjs" width="443.70221" height="421.44583"><svg xmlns:dc="http://purl.org/dc/elements/1.1/" xmlns:cc="http://creativecommons.org/ns#" xmlns:rdf="http://www.w3.org/1999/02/22-rdf-syntax-ns#" xmlns:svg="http://www.w3.org/2000/svg" xmlns="http://www.w3.org/2000/svg" viewBox="0 0 443.70221 421.44583" height="421.44583" width="443.70221" id="SvgjsSvg1010" version="1.1">
  <metadata id="SvgjsMetadata1009">
    <rdf:rdf>
      <cc:work rdf:about="">
        <dc:format>image/svg+xml</dc:format>
        <dc:type rdf:resource="http://purl.org/dc/dcmitype/StillImage"></dc:type>
        <dc:title></dc:title>
      </cc:work>
    </rdf:rdf>
  </metadata>
  <defs id="SvgjsDefs1008"></defs>
  <g transform="translate(-22.648885,-17.025599)" id="SvgjsG1007">
    <path id="SvgjsPath1006" d="m 232,438.34947 c -12.53491,-0.65818 -12.6459,-0.71187 -13.32506,-6.44626 -3.62425,-30.60115 -46.38354,-39.26293 -61.39606,-12.43706 -1.49958,2.6796 -23.15225,-7.52492 -39.48415,-18.60818 l -5.70528,-3.87175 2.65957,-5.24311 C 127.59972,366.40897 98.225524,338.86522 71.212183,350.91926 65.014007,353.68505 66.454172,354.76443 56.643126,340 50.118501,330.18123 42.688269,317.05628 41.599128,313.4259 c -0.503621,-1.67869 0.303224,-2.67378 4.232369,-5.21977 24.315533,-15.75593 13.622542,-53.26905 -15.948493,-55.95046 -5.783505,-0.52443 -5.851093,-0.56719 -6.548225,-4.14278 -0.916824,-4.70241 -0.91362,-36.53956 0.0042,-41.24791 l 0.708553,-3.63501 6.226258,-0.40018 C 50.541687,201.52711 63.993668,181.5506 57.588565,162.26664 55.610108,156.31007 48.596911,147.9041 44.026145,146.01083 42.361765,145.32142 41,144.35072 41,143.85372 c 0,-2.95931 13.067173,-25.61545 20.85134,-36.15249 l 4.133592,-5.59543 4.554909,2.01485 C 98.52005,116.49763 128.2397,89.084715 114.75709,63.335393 l -2.70424,-5.164607 8.72358,-5.676436 C 136.211,42.451059 155.99478,33.239283 157.26295,35.505391 172.311,62.394756 215.02668,54.149624 218.60967,23.664033 l 0.63638,-5.414592 5.12697,-0.616028 c 6.62936,-0.796546 33.62194,-0.796868 40.2499,-4.81e-4 l 5.12292,0.615548 0.54708,5.300692 c 3.09122,29.951055 44.83149,39.087868 60.65365,13.276894 l 1.63913,-2.673934 7.51722,3.26878 c 8.86955,3.856824 18.4705,9.076135 29.07024,15.803291 l 7.67316,4.869796 -2.6602,5.703 c -12.34468,26.464852 16.40658,52.650751 44.27405,40.323651 l 4.55491,-2.01486 3.90402,5.1971 c 7.21725,9.60774 21.0809,33.57527 21.0809,36.44474 0,0.43866 -1.62088,1.67046 -3.60195,2.73734 -25.57354,13.77226 -15.23067,54.44498 14.32821,56.34482 l 6.22626,0.40018 0.70855,3.63501 c 0.91777,4.70835 0.92098,36.5455 0.004,41.24791 -0.69713,3.57559 -0.76472,3.61835 -6.54822,4.14278 -30.25977,2.74386 -40.1685,43.73812 -13.867,57.37035 3.40557,1.76513 3.51828,0.87702 -1.35113,10.64618 -6.31375,12.66681 -20.03411,32.94868 -21.87241,32.33247 -0.83955,-0.28142 -4.22646,-1.47653 -7.52646,-2.65579 -26.36986,-9.42333 -52.69384,17.95023 -40.27708,41.88299 l 2.72291,5.2483 -8.65483,5.6415 c -8.461,5.51516 -32.75009,18.24788 -34.8485,18.26813 -0.58162,0.006 -2.48999,-2.02209 -4.24081,-4.50599 -16.57259,-23.51173 -55.46026,-13.66043 -58.81697,14.89994 -0.58058,4.93979 -0.92138,5.56632 -3.26646,6.00509 -3.80035,0.71105 -27.51652,1.35979 -35.11826,0.96063 z m 42,-55.89352 C 403.08547,359.77372 454.77332,209.51225 364.44781,119.51559 272.53818,27.940579 110.51154,71.600165 82.459371,195.5 58.045896,303.32856 159.69189,402.54157 274,382.45595 Z m -47.33191,-20.9537 c -14.70738,-2.40415 -33.51893,-8.36935 -32.30544,-10.24415 0.26987,-0.41696 29.75775,-20.5581 65.5286,-44.7581 35.77086,-24.2 65.02894,-44.225 65.01796,-44.5 -0.011,-0.275 -17.36829,-13.55 -38.5718,-29.5 -21.20352,-15.95 -38.76463,-29.53094 -39.02471,-30.17987 -0.26007,-0.64893 12.67138,-20.34654 28.73656,-43.77247 l 29.20942,-42.59259 5.62066,3.13434 c 72.79315,40.59279 87.43535,142.69807 29.15036,203.27582 -29.32081,30.4742 -73.35522,45.67666 -113.36161,39.13702 z m -50.689,-21.92152 C 123.95482,308.84042 100.13594,244.22818 119.48784,186.33987 140.52537,123.40926 205.88045,86.056553 270.5,100.03115 c 10.91032,2.35947 25.78453,7.65107 25.30237,9.00149 -0.1663,0.46578 -29.32737,20.48654 -64.80237,44.49057 -35.475,24.00404 -64.85086,43.97951 -65.2797,44.38994 -0.42883,0.41044 16.79764,13.71347 38.28106,29.5623 21.48342,15.84883 39.27958,29.1701 39.54701,29.60282 C 244.21337,258.15425 185.96744,344 184.5724,344 c -0.61282,0 -4.47981,-1.98867 -8.59331,-4.41927 z" style="fill:#f6c6d0"></path>
    <path id="SvgjsPath1005" d="m 222.3844,437.28663 c -2.98294,-0.37655 -3.14005,-0.6302 -3.68981,-5.95678 -2.80207,-27.14945 -37.82675,-37.93218 -56.91747,-17.52266 -2.46059,2.63057 -4.68808,5.4257 -4.94998,6.2114 -0.59283,1.77848 -22.92812,-9.0715 -35.929,-17.45349 l -8.60185,-5.54584 2.60185,-5.25963 c 12.64832,-25.56847 -17.773517,-54.05067 -43.835282,-41.04043 -3.158992,1.577 -4.796863,1.91652 -5.685923,1.17867 -3.841721,-3.18835 -25.544508,-39.27298 -24.234829,-40.29459 0.196842,-0.15355 2.482587,-1.7149 5.079434,-3.46969 23.977894,-16.20272 13.388624,-53.5162 -15.861481,-55.8912 l -6.139942,-0.49854 -0.599053,-3.62193 c -0.779986,-4.71586 -0.776612,-35.54823 0.0044,-40.271 0.593769,-3.59048 0.693956,-3.65993 6.238994,-4.32487 32.39261,-3.88442 40.63586,-42.38922 12.639762,-59.04121 -2.47726,-1.47347 7.020771,-19.29066 19.258856,-36.12735 l 4.464806,-6.14251 5.144955,2.35544 c 27.29651,12.49675 56.479873,-15.155856 43.555633,-41.270999 l -2.49895,-5.04947 8.98543,-5.798349 C 131.02032,46.25321 152.84964,35 155.26811,35 c 0.80294,0 2.65133,1.719246 4.10753,3.820548 C 176.18471,63.076041 219,51.075909 219,22.109223 v -3.815751 l 7.65088,-0.646736 c 9.74735,-0.823953 25.89345,-0.828809 35.57169,-0.0107 l 7.52432,0.636039 0.51562,5.686353 c 2.58626,28.521649 43.5957,38.857282 59.40269,14.971294 C 331.09552,36.768376 332.81439,35 333.48492,35 c 3.38143,0 40.21681,20.090336 41.9362,22.872369 0.27006,0.436964 -0.60353,3.456939 -1.94132,6.711056 -10.94306,26.618678 17.57464,52.309175 44.31391,39.920695 l 5.1809,-2.40035 6.40523,9.19812 c 3.52287,5.05896 9.24303,14.33353 12.71145,20.61016 l 6.30622,11.41205 -2.44875,1.58499 c -27.09291,17.53615 -18.76446,55.07088 13.01732,58.66658 5.74574,0.65006 5.8167,0.69755 6.41098,4.29083 0.77909,4.71075 0.78053,35.54761 0.002,40.25542 l -0.59906,3.62193 -6.15942,0.49442 c -31.30725,2.51304 -39.56811,43.14132 -11.91808,58.61505 2.02292,1.13208 -5.19556,15.1415 -15.92059,30.89825 -8.37931,12.31052 -7.49924,11.69273 -12.89578,9.05265 -26.31601,-12.87423 -57.62684,16.77135 -43.72976,41.404 l 2.65625,4.70822 -8.65625,5.63282 c -12.74707,8.29482 -35.37907,19.28227 -35.98339,17.46933 -1.04921,-3.14764 -9.73761,-11.1478 -14.79295,-13.62115 C 296.70445,396.28188 270,411.22025 270,432.90159 c 0,3.7942 -0.0392,3.83194 -4.63957,4.46249 -4.84548,0.66414 -37.56847,0.60517 -42.97603,-0.0774 z m 54.99417,-55.23599 C 396.94547,358.17329 450.73217,222.08964 376.2104,132 277.85899,13.102605 79.449682,77.299215 79.507922,228 79.539151,308.80697 140.4574,373.83461 226,384.37406 c 9.69927,1.19502 40.80328,-0.21155 51.37857,-2.32342 z m -45.56275,-20.06742 c -14.32675,-1.63505 -37.38595,-8.25017 -36.67236,-10.52041 0.16645,-0.52955 29.33977,-20.66143 64.82959,-44.73753 C 295.46287,282.64919 324.5,262.55312 324.5,262.06736 c 0,-0.48576 -17.325,-14.01538 -38.5,-30.06583 -21.175,-16.05044 -38.44905,-29.74758 -38.38677,-30.4381 0.1631,-1.80852 56.45402,-83.65201 57.92232,-84.21545 3.28897,-1.26209 22.55436,12.85588 34.49415,25.27785 83.19274,86.55244 10.96714,232.95899 -108.21388,219.35739 z M 176,339.33732 C 88.08109,285.3116 93.426996,156.66496 185.5,110.72441 c 30.73279,-15.334361 69.26949,-17.454208 102.00014,-5.61087 4.67492,1.69158 8.4764,3.37055 8.44772,3.73103 -0.0287,0.36049 -29.6735,20.66169 -65.8774,45.11378 l -65.82527,44.45835 15.6274,11.56245 c 8.59508,6.35934 26.53778,19.61374 39.87268,29.45421 l 24.24527,17.89177 -1.74527,2.68022 C 229.005,280.33847 185.24856,343.94328 184.5,343.94446 c -0.55,8.6e-4 -4.375,-2.07235 -8.5,-4.60714 z" style="fill:#f194a8"></path>
    <path id="SvgjsPath1004" d="m 223.88442,437.27045 -4.61558,-0.36905 -0.52349,-5.77309 c -2.57247,-28.36971 -43.01257,-38.55222 -59.36971,-14.94886 -1.4562,2.1013 -3.26316,3.82055 -4.01547,3.82055 -3.1236,0 -38.58998,-18.89648 -42.15217,-22.45867 -0.27488,-0.27487 0.69087,-3.15289 2.14611,-6.3956 11.59123,-25.8287 -16.054108,-52.06934 -43.129278,-40.93782 l -6.275168,2.57994 -4.354797,-6.14393 C 55.054604,337.41666 50.766624,330.44785 45.620844,320.68301 l -4.646291,-8.81698 4.729464,-3.18302 C 70.877548,291.74078 59.496426,253.02176 28.955467,251.7038 L 24.232946,251.5 23.616473,245.60331 c -0.797963,-7.63268 -0.778917,-29.60616 0.03151,-36.35331 0.616071,-5.12905 0.705598,-5.25 3.885973,-5.25 30.956759,0 44.096945,-42.23914 17.913683,-57.58355 l -4.50306,-2.63897 5.571941,-10.52759 c 3.064567,-5.79017 8.701228,-15.12481 12.525912,-20.74364 l 6.953971,-10.21606 5.251799,2.56311 C 97.497116,117.66395 127.49185,89.933996 115.42571,64.011451 l -2.55474,-5.488548 2.31451,-1.875114 c 5.97346,-4.839416 37.4062,-21.664323 40.43022,-21.640956 0.48637,0.0038 1.98883,1.628418 3.33882,3.610355 16.45228,24.153888 56.83468,14.398209 59.93945,-14.48032 L 219.5,18.5 232.15104,17.63225 c 7.14864,-0.490334 18.02206,-0.490334 25,0 L 269.5,18.5 270.13295,24 c 3.52166,30.601606 46.62261,39.275819 61.65809,12.408902 1.55189,-2.773076 29.2359,10.695597 42.06415,20.46482 l 2.35519,1.793572 -2.34802,4.416353 c -13.35478,25.118789 15.88246,53.366683 43.48294,42.011533 3.25299,-1.33832 6.13628,-2.00355 6.50143,-1.5 5.9312,8.17924 16.33845,24.82711 19.70619,31.52285 l 4.33459,8.61803 -4.9458,3.20477 c -24.64136,15.96706 -13.97127,53.57825 16.09128,56.72041 l 5.7191,0.59776 0.61526,5.1205 c 0.80412,6.69223 0.80502,28.67795 0.002,36.36566 l -0.63116,6.03855 -6.11884,0.39334 c -29.48572,1.89544 -39.90116,39.96178 -15.43945,56.42809 l 4.61288,3.10515 -5.20222,9.89485 c -5.77336,10.98118 -8.80416,15.95714 -15.24373,25.0271 l -4.35383,6.13225 -6.24625,-2.56826 c -27.39795,-11.26514 -55.42312,16.27103 -42.85371,42.10596 1.28503,2.64121 2.17239,4.95716 1.97193,5.14656 C 371.94349,401.15338 337.07598,420 334.14314,420 c -0.57469,0 -3.87949,-2.87008 -7.34401,-6.37796 -20.06448,-20.31557 -56.79374,-8.36311 -56.79834,18.48336 l -7.9e-4,4.60539 -6.75,0.6375 c -6.83963,0.64596 -30.90858,0.59837 -39.36558,-0.0778 z M 278.5,382.03579 c 126.03202,-27.0415 174.83969,-169.554 89,-259.86924 -65.38044,-68.789273 -178.23736,-69.48905 -244.67314,-1.51711 -85.003615,86.96912 -41.674233,228.49549 79.42158,259.41399 21.69549,5.53935 55.54606,6.41495 76.25156,1.97236 z m -55.66569,-21.60235 c -7.36031,-1.33183 -25.11043,-6.61824 -27.46991,-8.1812 -0.68253,-0.45211 24.95161,-18.44772 64.25,-45.10459 C 295.57648,282.75386 325,262.46319 325,262.05729 325,261.65138 307.45985,248.08493 286.0219,231.90964 264.58394,215.73434 247.20284,202.05 247.39722,201.5 c 0.46442,-1.31406 55.47056,-81.60089 57.09508,-83.33585 4.00556,-4.27785 33.81495,19.83603 46.48719,37.60515 67.8925,95.19936 -13.62112,225.38697 -128.14518,204.66414 z m -44.1263,-19.69536 C 63.49975,276.32957 110.7324,98 243,98 c 20.63702,0 55.74398,7.81876 51.81969,11.5409 -0.72583,0.68844 -30.11969,20.70998 -65.31969,44.49232 -35.2,23.78233 -64.32219,43.52369 -64.71599,43.86968 -0.39379,0.34599 17.23044,13.86712 39.16495,30.04695 l 39.88094,29.41788 -19.02159,28.06614 c -10.46188,15.43637 -23.5861,34.91695 -29.16495,43.29016 -5.57885,8.37322 -10.36836,15.23036 -10.64336,15.23808 -0.275,0.008 -3.10639,-1.44309 -6.29199,-3.22403 z" style="fill:#eb6985"></path>
    <path id="SvgjsPath1003" d="m 223.75,437.26496 -4.75,-0.37454 -7.9e-4,-4.69521 c -0.005,-28.26753 -42.91456,-39.92055 -59.68922,-16.2098 -1.54549,2.18454 -3.311,3.9815 -3.92334,3.99324 -4.09048,0.0784 -43.11887,-21.91269 -42.15852,-23.75485 15.12771,-29.01805 -12.24319,-59.35108 -41.478077,-45.96691 l -5.734437,2.62531 -6.456185,-9.26008 c -3.550902,-5.09304 -9.179175,-14.44441 -12.507274,-20.78083 l -6.05109,-11.52075 2.44578,-1.11437 C 71.22629,297.54901 61.456161,255.26202 29.877532,251.47558 l -5.622469,-0.67416 -0.618839,-5.15071 c -0.805874,-6.70743 -0.810062,-27.69414 -0.0071,-35.37684 l 0.629164,-6.01952 5.73425,-0.51996 c 30.00751,-2.72099 40.659527,-40.44675 16.091807,-56.99162 l -4.966275,-3.34449 5.037992,-9.44914 c 5.364218,-10.061 16.779269,-27.82069 19.142285,-29.78182 1.114154,-0.92466 2.476055,-0.69441 6.311175,1.06702 C 98.21506,117.45395 128.35207,88.305992 115.17507,63.098585 112.40461,57.798746 112.0442,58.264413 125,50.404383 c 15.05613,-9.134261 32,-16.83587 32,-14.545173 0,2.42485 8.69018,10.347853 14.30264,13.039996 C 192.75439,59.189017 219,44.879209 219,22.893326 c 0,-5.143028 0.83384,-5.316888 25.5,-5.316888 25.70837,0 25.07707,-0.177259 25.74871,7.229779 2.70003,29.776356 46.72006,38.088618 61.53307,11.619233 C 333.18978,33.909495 376,55.257375 376,58.475448 c 0,0.155576 -1.17133,2.841378 -2.60295,5.968447 -11.62086,25.38332 17.91437,52.768245 43.99339,40.790445 3.90094,-1.79166 5.18537,-2.00135 6.34811,-1.03636 2.47033,2.05019 14.81254,21.32488 19.63956,30.67087 l 4.57629,8.86055 -4.91136,3.05306 c -24.82769,15.43375 -13.94996,54.23939 15.96438,56.95193 l 5.73425,0.51996 0.62917,6.01952 c 0.80679,7.71902 0.68387,30.87483 -0.19496,36.72613 l -0.67588,4.5 -6.59927,0.65278 c -29.34636,2.90286 -39.04154,40.08129 -14.72133,56.45236 l 4.61288,3.10515 -5.20222,9.89485 c -6.00403,11.41993 -9.09623,16.46399 -15.3799,25.08806 l -4.51249,6.19321 -3.89073,-1.9849 c -26.91956,-13.73334 -59.70608,16.57089 -44.9629,41.55873 1.60441,2.71927 1.92712,4.11057 1.16612,5.02752 C 372.13176,400.95602 336.96052,420 333.43359,420 c -0.69876,0 -2.21416,-1.52692 -3.36755,-3.39315 -14.95014,-24.18983 -56.89892,-14.21595 -59.96001,14.25628 L 269.5,436.5 l -5,0.66239 c -5.19409,0.68811 -32.45396,0.75672 -40.75,0.10257 z m 55.61928,-55.21383 C 406.72384,354.42409 454.0037,208.70309 364.56824,119.45984 276.9051,31.985102 124.11716,65.680061 85.994457,180.89488 c -30.10333,90.97858 31.911693,186.42299 131.633153,202.59041 13.59603,2.20427 48.73154,1.38813 61.74167,-1.43416 z M 223.5,360.38548 c -8.01898,-1.43845 -21.67849,-5.36359 -26.65673,-7.65997 -2.57265,-1.18672 -0.57372,-2.63398 63.15543,-45.72551 61.07366,-41.29598 65.69297,-44.61787 64.15673,-46.13705 C 323.24494,259.96258 305.625,246.49973 285,230.9455 264.375,215.39127 247.33852,202.54146 247.14116,202.39037 246.59706,201.97382 305.03046,117 305.86101,117 c 7.67728,0 37.95332,27.34385 48.66043,43.94773 C 416.00213,256.28799 334.53049,380.30221 223.5,360.38548 Z M 176.11302,339.06793 C 103.81319,295.61446 91.665394,195.22304 151.47901,135.48826 c 34.87804,-34.83207 89.11031,-46.9872 135.21279,-30.30537 4.62036,1.67184 8.26736,3.42459 8.10443,3.89499 -0.16293,0.47041 -29.46756,20.62039 -65.12141,44.77775 -35.65385,24.15736 -64.90385,44.17868 -65,44.49182 -0.0962,0.31314 17.37518,13.5576 38.82518,29.43213 22.33869,16.53222 38.95496,29.49424 38.89456,30.34088 -0.0977,1.36902 -54.06432,81.81508 -56.78689,84.65006 -0.97943,1.01987 -2.8526,0.2894 -9.49465,-3.70259 z" style="fill:#e8486a"></path>
    <path id="SvgjsPath1002" d="m 226.33019,437.26168 -6.16981,-0.35295 -0.64903,-4.20437 c -4.79582,-31.06705 -45.88269,-41.58443 -61.19403,-15.66439 -0.9617,1.62802 -2.28175,2.96003 -2.93345,2.96003 -1.9498,0 -27.3346,-13.18218 -35.09831,-18.22635 l -7.21444,-4.6873 2.61004,-5.70108 C 127.97402,364.53411 97.207486,337.30884 69.860813,350.8389 l -3.776354,1.86839 -4.292229,-6.07876 c -6.644538,-9.41016 -12.334175,-18.7619 -16.710922,-27.46682 l -3.998813,-7.95324 2.975709,-1.23258 c 1.63664,-0.67792 5.130476,-3.59024 7.76408,-6.47182 17.484707,-19.13105 4.913484,-49.05877 -21.880629,-52.09018 l -5.667397,-0.64119 -0.637129,-7.53723 c -0.805347,-9.52725 -0.802748,-20.45427 0.0073,-30.85914 l 0.632482,-8.12367 5.664095,-0.5136 C 60.417422,200.97556 70.939536,161.7225 45.430072,145.95678 43.543533,144.79084 42,143.27937 42,142.59796 c 0,-2.91047 21.0423,-37.27 23.910198,-39.04246 0.410748,-0.25386 3.610454,0.69512 7.110458,2.10883 29.760624,12.02086 55.841064,-18.306777 40.238174,-46.790962 -0.59087,-1.078675 15.4505,-10.836979 28.7599,-17.495258 C 154.64509,35.061534 157,34.194018 157,35.85921 c 0,2.377501 8.71248,10.366217 14.31148,13.122595 20.65925,10.170515 43.87932,-1.466356 47.8446,-23.97759 1.2823,-7.279729 0.18228,-6.976906 25.34392,-6.976906 25.20816,0 24.05827,-0.321837 25.36551,7.099462 4.70215,26.694507 36.84158,37.043 56.10509,18.06513 3.17767,-3.130546 5.98228,-6.361033 6.23247,-7.17886 C 332.86935,33.835149 376,55.860591 376,58.378728 c 0,0.109114 -0.8795,1.923481 -1.95445,4.031927 -13.24906,25.987263 14.3228,54.406255 41.95575,43.244815 4.57254,-1.84694 6.74285,-2.28277 7.64384,-1.53501 2.29696,1.9063 14.0027,20.23862 18.96573,29.70215 l 4.88913,9.32261 -2.5,1.62551 C 418.13895,162.23587 428.99035,204 460.3893,204 h 4.31427 l 0.64222,8.25 c 0.81932,10.52494 0.82532,21.42396 0.0171,30.98547 l -0.63713,7.53723 -5.78486,0.65448 c -31.60371,3.57555 -40.53512,43.11975 -13.37523,59.21946 2.49945,1.48161 -2.70101,12.23774 -14.64366,30.2875 l -7.91293,11.95936 -5.50156,-2.5187 c -26.96694,-12.34587 -56.26163,14.75899 -44.23582,40.92912 l 2.66704,5.80392 -7.71936,4.99053 c -8.22287,5.31605 -32.56079,17.91598 -34.53738,17.88028 -0.65009,-0.0117 -2.44648,-1.8087 -3.99197,-3.99324 -16.75187,-23.67853 -54.46234,-14.37119 -59.88356,14.77988 l -1.10774,5.95661 -9.00298,0.63905 c -8.86916,0.62955 -21.27048,0.59266 -33.36554,-0.0993 z M 272,383.39522 C 390.56991,363.04458 448.86024,237.00423 383.76921,141.71826 330.14335,63.216027 215.53619,46.219789 139.5,105.49314 53.89679,172.22438 59.031756,296.66232 149.89414,357.37886 184.35266,380.40492 231.22987,390.39277 272,383.39522 Z m -42,-22.06343 c -13.58482,-2.15098 -31.95482,-7.12971 -34.3033,-9.29705 -0.44181,-0.40773 28.68511,-20.71985 64.7265,-45.13804 36.04139,-24.41818 65.51827,-44.6217 65.50416,-44.8967 -0.0141,-0.275 -16.31603,-12.7481 -36.2265,-27.718 -19.91047,-14.9699 -37.63206,-28.4699 -39.3813,-30 l -3.18045,-2.782 28.90644,-41.992 c 15.89855,-23.0956 29.2834,-42.11765 29.74412,-42.27122 0.46072,-0.15358 5.53402,2.82878 11.274,6.62746 81.17216,53.71912 77.2535,172.56153 -7.30067,221.40939 -22.47104,12.98177 -56.24689,19.78164 -79.763,16.05816 z m -54.41891,-22.80894 c -94.256959,-59.17634 -78.281455,-198.88964 26.76118,-234.0391 26.97381,-9.026002 58.24931,-8.615821 85.40773,1.12013 3.9875,1.42946 7.24656,2.89087 7.24235,3.24757 -0.004,0.3567 -29.51699,20.61969 -65.58397,45.02886 -52.84176,35.76189 -65.31728,44.61605 -64.24236,45.59423 0.73369,0.66765 17.75898,13.27405 37.83398,28.01421 20.075,14.74017 37.34734,27.59511 38.38299,28.56654 1.65703,1.5543 -47.14924,77.37712 -55.8197,86.7185 -0.94406,1.01711 -2.95558,0.1605 -9.9822,-4.25094 z" style="fill:#e42d54"></path>
    <path id="SvgjsPath1001" d="m 226.33759,437.26188 -6.16241,-0.35277 -0.676,-5.20455 c -4.03351,-31.05428 -47.1465,-40.17379 -62.25894,-13.16937 -1.52016,2.71639 -17.59047,-4.66048 -36.4134,-16.71512 l -7.67316,-4.91407 2.33392,-5.203 c 11.90211,-26.53334 -16.981284,-54.12217 -43.878038,-41.91141 -3.513874,1.59525 -5.246548,1.92465 -6.155572,1.17023 -3.713906,-3.08227 -23.494491,-35.53114 -23.432006,-38.43881 0.01209,-0.56266 2.038815,-2.37301 4.503829,-4.02301 24.342775,-16.29426 13.549754,-54.01427 -16.34958,-57.13937 l -5.899539,-0.61662 -0.632353,-8.12201 c -0.802651,-10.30931 -0.802597,-19.93538 1.7e-4,-30.24621 l 0.632523,-8.12421 6.130969,-0.49213 c 31.144608,-2.49999 40.470093,-44.32035 13.220447,-59.28741 -2.404715,-1.32081 3.479569,-13.54478 14.333817,-29.77697 8.504178,-12.71774 7.724321,-12.15446 13.151728,-9.49929 26.410051,12.92024 56.742315,-15.21671 44.657355,-41.425253 l -2.64191,-5.729472 9.09596,-5.626529 c 5.00278,-3.094591 14.49061,-8.28152 21.08408,-11.526509 l 11.98812,-5.89998 5.383,5.948403 c 19.79385,21.872918 54.6867,11.736014 58.847,-17.095953 0.85782,-5.944845 0.2922,-5.813178 24.9724,-5.813178 25.16146,0 23.89962,-0.357463 25.29892,7.166909 5.27596,28.369993 38.85835,37.469582 58.43714,15.83431 l 5.29832,-5.854832 10.98281,5.238577 c 8.59373,4.099034 24.1242,13.029901 30.63903,17.619108 0.41489,0.292259 -0.45053,2.965995 -1.92316,5.941636 -12.59018,25.44013 18.41165,54.060443 44.65295,41.222763 2.4123,-1.18013 4.76138,-1.9137 5.22018,-1.63015 1.85988,1.14947 15.32755,22.33797 19.57962,30.80434 l 4.55072,9.06102 -2.36827,1.53451 c -26.65553,17.27129 -17.54369,56.2493 13.74322,58.78983 l 6.11149,0.49625 0.63252,8.12421 c 0.80308,10.31489 0.80278,19.93741 -9.6e-4,30.26082 l -0.63348,8.13662 -5.66505,0.64092 c -29.92774,3.38594 -40.85833,40.95388 -16.60944,57.08585 2.48021,1.65 4.51936,3.40435 4.53146,3.89857 0.0673,2.75244 -19.89572,35.62838 -23.4008,38.53734 -0.98886,0.82069 -2.56625,0.54283 -6.2017,-1.09241 -26.666,-11.99452 -56.04574,15.59736 -44.12409,41.43899 l 2.66767,5.78248 -7.14434,4.57941 c -18.17192,11.64791 -35.51911,19.56383 -37.015,16.89081 -15.04533,-26.8845 -58.45717,-17.81636 -62.30937,13.01557 l -0.64515,5.16358 -9.05624,0.64283 c -8.91594,0.63287 -21.30861,0.59753 -33.41141,-0.0953 z M 259.5,384.9611 C 374.84203,374.08505 443.98313,259.53221 395.00204,160.46156 336.67773,42.493041 159.62586,39.641575 96.388361,155.65231 36.727935,265.10082 130.63047,397.1127 259.5,384.9611 Z m -32,-24.014 c -13.1956,-2.05518 -33.53943,-8.39268 -31.84326,-9.9198 0.46379,-0.41757 29.86826,-20.41634 65.34326,-44.44172 35.475,-24.02538 64.60418,-43.9982 64.73152,-44.38404 0.12733,-0.38585 -17.31017,-13.93497 -38.75,-30.10915 C 265.54168,215.9182 248,202.26214 248,201.74559 c 0,-0.51655 12.90321,-19.76487 28.6738,-42.77404 l 28.6738,-41.83487 4.0762,2.06851 c 49.01658,24.87389 76.59897,89.30272 62.1079,145.07582 C 354.93799,328.14672 291.26764,370.87873 227.5,360.9471 Z M 177.74167,339.73808 C 151.23439,324.83226 129.01303,297.14518 119.66303,267.374 87.773104,165.83387 183.29461,71.422277 284.25,104.69945 c 5.9125,1.94889 10.73249,3.82629 10.7111,4.172 -0.0214,0.3457 -29.29862,20.40307 -65.0605,44.57193 -35.76188,24.16886 -65.22371,44.2704 -65.47073,44.67009 -0.24702,0.39969 17.34698,13.87484 39.09779,29.94476 21.7508,16.06993 39.41763,29.56648 39.25963,29.99234 -0.96043,2.58854 -57.47212,84.9287 -58.28729,84.9273 -0.55,-9.4e-4 -3.59125,-1.45885 -6.75833,-3.23979 z" style="fill:#e21541"></path>
    <path id="SvgjsPath1000" d="m 226.33759,437.26188 -6.16241,-0.35277 -0.65164,-5.20455 c -3.6245,-28.94862 -39.11275,-39.44357 -59.01382,-17.45217 l -5.35665,5.91929 -11.82653,-5.90518 c -6.5046,-3.24785 -15.97873,-8.48236 -21.05362,-11.63223 l -9.22708,-5.72704 1.94105,-3.62159 c 13.99194,-26.10592 -15.774415,-55.97891 -43.345575,-43.50087 -2.672277,1.20941 -5.223015,1.97375 -5.668308,1.69855 C 63.116582,349.71795 44.040318,318.62459 42.669642,313.5 c -0.415871,-1.55483 0.50734,-2.66775 4.147709,-5 24.387992,-15.62448 13.290668,-54.01088 -16.514906,-57.12618 l -6.025751,-0.62981 -0.632353,-8.12201 c -0.759515,-9.75527 -0.66522,-23.89635 0.214193,-32.122 l 0.641466,-6 6.208513,-0.68485 C 60.555927,200.52271 71.111245,162.11103 46.451815,146.52395 44.003317,144.97626 42,143.539 42,143.33003 c 0,-2.34749 11.976329,-22.8892 19.830477,-34.01309 l 4.330476,-6.13328 4.669524,2.14764 C 97.837229,117.75246 128.02581,89.97072 115.8581,63.893592 l -2.61598,-5.606408 10.10163,-6.30487 c 5.5559,-3.467678 15.06087,-8.696598 21.12217,-11.619823 l 11.02053,-5.314953 2.50116,3.226231 c 19.72907,25.448467 56.75383,16.470332 61.59811,-14.936929 0.82797,-5.368091 0.55318,-5.309531 24.91428,-5.309531 24.3611,0 24.08631,-0.05856 24.91428,5.309531 4.69027,30.408723 43.1222,40.630202 60.70579,16.145501 l 3.09893,-4.31519 9.1405,4.258026 c 9.83275,4.580507 31.10709,16.90273 32.18011,18.638912 0.35972,0.582046 -0.37164,3.393235 -1.62525,6.247088 -11.45244,26.071598 18.55634,53.302493 45.22122,41.035143 l 4.63558,-2.13263 4.49032,6.14315 c 11.87263,16.24283 20.83503,33.61806 18.11222,35.11384 -27.36493,15.03295 -18.47318,55.88176 12.91779,59.34447 L 464.5,204.5 l 0.88235,11.55067 c 0.4853,6.35286 0.55341,16.81536 0.15135,23.25 L 464.8027,251 h -3.29601 c -30.68862,0 -44.47715,42.62 -18.78787,58.07282 2.07965,1.25097 3.92176,2.37443 4.09358,2.49657 1.3695,0.97354 -20.65093,37.97671 -23.73353,39.88186 -0.47382,0.29285 -3.04791,-0.45707 -5.72019,-1.66648 -26.69763,-12.08271 -56.53262,16.2582 -44.17541,41.96319 l 2.52287,5.24796 -8.10307,5.20842 c -8.44751,5.42981 -32.23179,17.76774 -34.28568,17.78546 -0.65044,0.006 -1.45509,-0.8483 -1.78812,-1.89757 -0.33303,-1.04928 -2.64703,-3.7896 -5.14224,-6.0896 -20.60946,-18.99713 -53.52044,-7.79419 -56.91487,19.3739 l -0.66651,5.33459 -9.65283,0.63927 c -9.52426,0.63075 -20.78087,0.60039 -32.81523,-0.0885 z M 260,384.94224 C 383.4477,373.66095 451.01759,243.4028 385.26361,143.46478 321.30065,46.248883 169.32222,45.487875 104.53,142.05905 30.130158,252.95015 122.65278,397.49373 260,384.94224 Z m -32.3653,-24.04262 c -7.49031,-1.0938 -22.88583,-5.20322 -28.36507,-7.57129 L 195.03926,351.5 260.54944,307.08942 C 296.58004,282.66361 325.9337,262.31941 325.77981,261.8801 325.62591,261.44079 308.175,247.9743 287,231.95457 c -21.175,-16.01974 -38.5,-29.69326 -38.5,-30.3856 0,-0.69235 12.82208,-19.95849 28.4935,-42.81365 l 28.4935,-41.55484 3.0065,1.54693 c 29.38752,15.12073 55.27493,49.20055 63.56049,83.67505 21.09509,87.77228 -55.2094,171.5043 -144.41929,158.47716 z M 179.43652,340.65188 C 66.870188,276.2717 108.12419,104.0959 237.5,98.320813 c 20.16102,-0.899948 56.5,5.952137 56.5,10.653657 0,0.45692 -29.22597,20.56209 -64.94661,44.67815 -35.72064,24.11606 -64.82463,44.29738 -64.67555,44.84738 0.14908,0.55 17.78755,13.94577 39.19661,29.76837 21.40905,15.8226 38.92555,29.0976 38.92555,29.5 0,1.42285 -57.01491,85.15931 -58,85.18324 -0.55,0.0134 -2.82857,-1.02152 -5.06348,-2.29973 z" style="fill:#e00534"></path>
  </g>
</svg><style>@media (prefers-color-scheme: light) { :root { filter: none; } }
</style></svg>