<svg xmlns="http://www.w3.org/2000/svg" width="527.387" height="112.71" viewBox="0 0 527.387 112.71"><defs><style>.a{fill:#fff;}.b{fill:#e31337;}</style></defs><path class="a" d="M155.636,34.449a29.9,29.9,0,0,0-2.364-1.889,31.509,31.509,0,0,0-8.415-4.381l-.1-.034A32.029,32.029,0,0,0,105.715,72.6l-1.85,2.1L78.017,104.061A12.22,12.22,0,0,0,75.9,116.841a12.1,12.1,0,0,0,3.213,4.47,12.226,12.226,0,0,0,17.26-1.118c.061-.067.129-.14.184-.212h0a7.426,7.426,0,0,0,10.008-10.946l-.218-.162c-.061-.045-.117-.1-.168-.14s-.24-.229-.352-.346a4.588,4.588,0,0,1,6.42-6.543l.156.145.034-.034a7.426,7.426,0,0,0,9.812-11.136l1.833-2.084a32.012,32.012,0,0,0,31.548-54.318Zm-6.979,26.095a11.824,11.824,0,0,1-3.353,2.671,12.019,12.019,0,1,1,3.353-2.671Z" transform="translate(-33.075 -11.674)"/><path class="b" d="M48.474,63a7.415,7.415,0,0,0,4.778-9.175l2.626-.877a32.085,32.085,0,0,0,13.092,9.08,32.023,32.023,0,0,1,34.543-51.877A32.023,32.023,0,0,0,48.195,29.709l-2.654.877L8.382,42.93a12.228,12.228,0,0,0,7.7,23.211l.268-.089h0A7.426,7.426,0,0,0,30.51,61.643c-.039-.078-.073-.168-.106-.251a1.117,1.117,0,0,1-.073-.2c-.056-.162-.095-.324-.134-.481A4.593,4.593,0,0,1,39.042,58.3a.968.968,0,0,0,.061.207h.045A7.426,7.426,0,0,0,48.474,63Z" transform="translate(-0.001 -0.011)"/><path class="a" d="M282.755,58.951l26.821-30.487a1.3,1.3,0,0,0-.821-2.274h-8.527a6.65,6.65,0,0,0-4.822,2.364L275.653,53.218h-1.816L277.3,29.1a2.542,2.542,0,0,0-2.548-2.911h-6.739a3.353,3.353,0,0,0-3.274,2.911L256.543,86.99A2.436,2.436,0,0,0,259,89.9h6.823a3.409,3.409,0,0,0,3.258-2.911l3-21.3h1.637l13.109,21.937A5.029,5.029,0,0,0,291.1,89.9h9.466a1.5,1.5,0,0,0,1.369-2.185Z" transform="translate(-113.185 -11.562)"/><path class="a" d="M392.089,26.189H359.87A3.353,3.353,0,0,0,356.6,29.1L348.4,86.989a2.438,2.438,0,0,0,2.459,2.911H383.83a3.308,3.308,0,0,0,3.185-2.911l.637-4.554a2.358,2.358,0,0,0-2.459-2.794H362.138l2.185-15.567h18.11a3.409,3.409,0,0,0,3.274-2.911l.637-4.47a2.433,2.433,0,0,0-2.459-2.911h-18.1l2.369-17.2h22.479a3.481,3.481,0,0,0,3.274-2.794l.637-4.683a2.436,2.436,0,0,0-2.458-2.911Z" transform="translate(-153.717 -11.561)"/><path class="a" d="M486.154,26.189h-7.376a5.141,5.141,0,0,0-4.275,2.637L459.417,56.854l-7.393-28.028a3.554,3.554,0,0,0-3.548-2.637h-7.739a2.02,2.02,0,0,0-2,2.548L451.3,68.052l-2.732,18.937a2.5,2.5,0,0,0,2.565,2.906h6.918a3.313,3.313,0,0,0,3.185-2.911l2.732-19.116L487.35,28.753A1.542,1.542,0,0,0,486.154,26.189Z" transform="translate(-193.536 -11.56)"/><path class="a" d="M657.26,86.99,665.452,29.1a2.481,2.481,0,0,0-2.458-2.911h-7.007A3.308,3.308,0,0,0,652.8,29.1l-3.459,24.754H630.048L633.507,29.1a2.38,2.38,0,0,0-2.369-2.911H624.22a3.353,3.353,0,0,0-3.274,2.911L612.754,86.99a2.438,2.438,0,0,0,2.458,2.911h7.007A3.381,3.381,0,0,0,625.4,86.99l3.185-22.753h19.2L644.609,86.99a2.481,2.481,0,0,0,2.459,2.911h6.918A3.353,3.353,0,0,0,657.26,86.99Z" transform="translate(-270.355 -11.561)"/><path class="a" d="M754.984,87.163,743.518,28.917a3.632,3.632,0,0,0-3.554-2.727h-6.1a5.113,5.113,0,0,0-4.275,2.727L701.817,87.163a1.784,1.784,0,0,0,1.548,2.732h7.459a4.532,4.532,0,0,0,4.006-2.794l5.459-12.561h19.524l2,12.651a3.258,3.258,0,0,0,3.28,2.732h7.644a2.28,2.28,0,0,0,2.246-2.76ZM724.5,64.684,734.6,41.02l3.638,23.664Z" transform="translate(-309.558 -11.562)"/><path class="a" d="M825.462,26.19h-6.923a3.353,3.353,0,0,0-3.28,2.911L807.073,86.99a2.432,2.432,0,0,0,2.453,2.911h7a3.392,3.392,0,0,0,3.191-2.911L827.82,29.1a2.375,2.375,0,0,0-2.358-2.911Z" transform="translate(-356.093 -11.561)"/><path class="a" d="M898.594,26.19h-6.823a3.235,3.235,0,0,0-3.185,2.911l-5.029,37.862L869.471,28.738a4.163,4.163,0,0,0-3.822-2.548h-7.37A3.353,3.353,0,0,0,855,29.1L846.813,86.99a2.432,2.432,0,0,0,2.453,2.911h6.828A3.23,3.23,0,0,0,859.2,86.99l5.1-37.678,13.835,38.041a4.158,4.158,0,0,0,3.822,2.548H889.6a3.475,3.475,0,0,0,3.274-2.911L900.964,29.1a2.42,2.42,0,0,0-2.369-2.911Z" transform="translate(-373.627 -11.562)"/><path class="a" d="M566.317,32.711a31.85,31.85,0,1,0-7.532,54.5,2.045,2.045,0,0,0,.933-.777A6.386,6.386,0,0,0,560.78,82.9l1.118-8.8a1.928,1.928,0,0,0-3.157-1.721,19,19,0,1,1,3.319-25.67,1.939,1.939,0,0,0,3.515-.849l1.475-11.326a2,2,0,0,0-.732-1.822Z" transform="translate(-227.142 -11.439)"/><circle class="a" cx="12.014" cy="12.014" r="12.014" transform="translate(307.777 34.582)"/><path class="a" d="M640.81,159.12v23.468h2.682v-9.823h10.393v-2.548H643.492v-8.549h15.255V159.12H640.81Z" transform="translate(-282.743 -70.214)"/><path class="a" d="M689.361,158.52A12.072,12.072,0,1,0,701.7,170.59,11.954,11.954,0,0,0,689.361,158.52Zm0,21.557a9.5,9.5,0,1,1,9.656-9.5A9.248,9.248,0,0,1,689.361,180.077Z" transform="translate(-298.707 -69.949)"/><path class="a" d="M751.3,166.161c0-4.191-3.319-7.041-7.644-7.041H731.42v23.468H734.1v-9.454h9.253l6.4,9.454h2.883v-.2l-6.51-9.589A6.785,6.785,0,0,0,751.3,166.161Zm-17.2,4.47v-8.94h9.454c2.883,0,5.063,1.71,5.063,4.47s-2.179,4.47-5.062,4.47Z" transform="translate(-322.722 -70.214)"/><path class="a" d="M813.979,169.245H798.892V159.12H796.21v23.468h2.682v-10.8h15.087v10.8h2.682V159.12h-2.682Z" transform="translate(-351.31 -70.214)"/><rect class="a" width="2.682" height="23.468" transform="translate(472.493 88.906)"/><path class="a" d="M870.118,179.3l-9.086-20.183H858.25v.235l10.594,23.234h2.515l10.628-23.234v-.235H879.2Z" transform="translate(-378.683 -70.214)"/><path class="a" d="M911.212,172.095H921.1v-2.548h-9.891v-7.879h15.355V159.12H908.53v23.468h18.2v-2.582H911.212Z" transform="translate(-400.868 -70.214)"/><rect class="b" width="191.101" height="2.794" transform="translate(143.498 99.958)"/></svg>